<?xml version="1.0" encoding="utf-8"?>
<svg version="1.1" xmlns:xlink="http://www.w3.org/1999/xlink" width="176px" height="170px" xmlns="http://www.w3.org/2000/svg">
  <g transform="matrix(1 0 0 1 -890 -157 )">
    <path d="M 890 157  L 1066 157  L 1066 327  L 890 327  L 890 157  " fill-rule="nonzero" fill="#cccccc" stroke="none" />
    <path d="M 902 169  L 1054 169  L 1054 315  L 902 315  L 902 169  " fill-rule="nonzero" fill="#ffffff" stroke="none" />
    <path d="M 994.27 208  C 987.13 208  981.52 202.39  981.52 195.25  C 981.52 188.11  987.13 182.5  994.27 182.5  C 1001.41 182.5  1007.02 188.11  1007.02 195.25  C 1007.02 202.39  1001.41 208  994.27 208  " fill-rule="nonzero" fill="#cccccc" stroke="none" />
    <path d="M 907 311  L 907 235.65  L 942.75 201.4  L 992.8 231.602272727273  L 1021.4 221.95  L 1050 231.602272727273  L 1050 311  L 907 311  " fill-rule="nonzero" fill="#169bd5" stroke="none" />
  </g>
</svg>